<svg width="512" height="512" viewBox="0 0 512 512" fill="none" xmlns="http://www.w3.org/2000/svg">
<path d="M310 93.25H314.75L318 94L321 95.5L323.75 97.75L326.25 100L329 102.25L331.75 104.75L334.5 107L337.5 109.75L340.25 112L343 114.5L345.75 116.75L348.5 119.25L351.25 121.5L354.25 124.25L357 126.5L360 129.25L362.75 131.5L365.5 134L368.25 136.25L371.25 139L374 141.25L376.5 143.5L379.25 145.75L382.5 148.75L385.25 151L388 153.5L390.75 155.75L393.5 158.25L396.25 160.5L399.25 163.25L402 165.5L405 168.25L407.75 170.5L410.5 173L413.25 175.25L416.25 178L419 180.25L421.5 182.5L424.25 184.75L427.5 187.75L430.25 190L433.25 192.75L436 195L438.75 197.5L441.5 199.75L444.25 202.25L447 204.5L450 207.25L452.75 209.5L455.5 212L458.25 214.25L461.25 217L464 219.25L466.75 221.75L469.5 224L472.5 226.75L475.25 229L478 231.5L480.75 233.75L483.5 236.25L486.25 238.5L489.25 241.25L491.25 243L493.5 245.75L495 248.75L496 252.75V259.25L495 263L493 267L490.25 270L488.25 271.75L484.75 274.75L482 277.25L479.25 279.5L476 282.5L474 284.25L466.5 290.75L464 293L462 294.75L458.5 297.75L455.75 300.25L453 302.5L449.5 305.75L446.75 308L443.5 311L440.75 313.25L437.75 316L435.75 317.75L433.25 320L430.5 322.25L427.5 325L425.5 326.75L422 329.75L419.5 332L417.5 333.75L414 336.75L411.5 339L409.5 340.75L407 343L404.25 345.25L401.25 348L399.25 349.75L395.75 352.75L393.25 355L391.25 356.75L387.75 359.75L385.25 362L383.25 363.75L379.75 366.75L377 369.25L374.25 371.5L371 374.5L369 376.25L365.5 379.25L363 381.5L361 383.25L357.25 386.5L354.5 389L351.75 391.25L348.75 394L346.75 395.75L343.25 398.75L340.75 401L338.75 402.75L335.25 405.75L332.75 408L330.75 409.75L328.25 412L325.5 414.25L323 416.25L318.75 418L314.75 419L313.25 419.25H309L306.5 418.5L302.5 416L299.5 413.25L297.5 410.5L296.5 408.25L296 406L295.75 403.25L295.5 320.25L29.75 320L26.75 319.5L23.75 318.25L21.5 316.75L19.5 315L17.5 312L16.5 309.25L16 307L15.75 303.5V207L16.25 203.25L17.5 200L19.25 197.25L21.5 195L24 193.5L26.5 192.5L28.5 192L31.25 191.75H295.5L295.75 107.75L296.25 104.5L297.5 101.5L299 99.25L301 97L304.25 94.75L306.75 93.75L310 93.25ZM328.25 144.5L328 195.75L327.75 210.75L326.75 214.75L325.25 217.5L323.5 219.75L321.5 221.25L318.5 222.75L315.75 223.5L313.75 223.75L48.25 224L48 235V287.75L49.5 288H312L316.75 288.5L320 289.75L323.25 292L325 294L326.75 297L327.75 301L328 309.75V353.25L328.25 367.25L329.25 366.75L332.75 363.75L336 360.75L338.75 358.5L341.75 355.75L344.5 353.5L347.5 350.75L349.5 349L353 346L355.5 343.75L357.5 342L361 339L363.5 336.75L365.5 335L369 332L371.5 329.75L373.5 328L377 325L379.5 322.75L381.5 321L384 318.75L386.75 316.5L390 313.5L392.75 311.25L395.75 308.5L397.75 306.75L401.25 303.75L403.75 301.5L405.75 299.75L409.25 296.75L411.75 294.5L413.75 292.75L417.25 289.75L421 286.5L423.75 284L425.75 282.25L429 279.5L431.75 277L433.75 275.25L437 272.5L439.75 270L441.75 268.25L445.25 265.25L447.75 263L449.75 261.25L452.25 259L455 256.75L455.5 255.75L454.25 254.5L451.5 252H451V251.5L448.25 249.25L445 246.25L442.25 244L439 241L436.25 238.75L433 235.75L430.25 233.5L427 230.5L424.25 228.25L421 225.25L418.25 223L415.25 220.25L412.5 218L409.25 215L407.25 213.25L403.75 210.25L401.25 208L399.25 206.25L395.75 203.25L393 200.75L390.25 198.5L387 195.5L384.25 193.25L381 190.25L378.25 188L375 185L372.25 182.75L369 179.75L366.25 177.5L363 174.5L360.25 172.25L357 169.25L354.25 167L351 164L348.25 161.75L345 158.75L342.25 156.5L339 153.5L336.25 151.25L333.25 148.5L330.5 146.25L328.5 144.5H328.25Z" fill="#7F3BB0"/>
</svg>
